<?xml version="1.0" encoding="UTF-8"?><svg id="Layer_1" xmlns="http://www.w3.org/2000/svg" viewBox="0 0 484.34 344.58"><g><path id="Eye_Mark" d="M100.57,83.12v-5.81c.56-.04,1.13-.07,1.71-.09,15.89-.5,26.31,13.65,26.31,13.65,0,0-11.26,15.64-23.33,15.64-1.74,0-3.29-.28-4.7-.75v-17.61c6.19,.75,7.43,3.48,11.15,9.68l8.27-6.97s-6.04-7.92-16.21-7.92c-1.11,0-2.17,.08-3.2,.19m0-19.19v8.68c.57-.05,1.14-.08,1.71-.1,22.09-.74,36.49,18.12,36.49,18.12,0,0-16.53,20.1-33.76,20.1-1.58,0-3.06-.15-4.44-.39v5.36c1.19,.15,2.42,.24,3.7,.24,16.03,0,27.62-8.18,38.84-17.87,1.86,1.49,9.48,5.11,11.05,6.7-10.67,8.93-35.54,16.13-49.64,16.13-1.36,0-2.67-.08-3.95-.21v7.54h60.92V63.93h-60.92Zm0,41.83v4.58c-14.82-2.64-18.94-18.05-18.94-18.05,0,0,7.12-7.89,18.94-9.16v5.02s-.02,0-.02,0c-6.2-.75-11.05,5.05-11.05,5.05,0,0,2.72,9.76,11.07,12.57m-26.33-14.14s8.79-12.96,26.33-14.31v-4.7c-19.43,1.56-36.26,18.02-36.26,18.02,0,0,9.53,27.55,36.26,30.08v-5c-19.61-2.47-26.33-24.08-26.33-24.08Z"/><path id="NVIDIA" d="M271.22,76.08v42.21h11.92v-42.21h-11.92Zm-93.78-.06v42.27h12.03v-32.09h9.32c3.09,0,5.28,.77,6.77,2.36,1.89,2.01,2.66,5.25,2.66,11.18v18.56h11.65v-23.35c0-16.67-10.62-18.91-21.02-18.91h-21.41m112.97,.06v42.21h19.34c10.3,0,13.66-1.71,17.3-5.55,2.57-2.7,4.23-8.62,4.23-15.09,0-5.93-1.41-11.23-3.86-14.52-4.42-5.89-10.78-7.05-20.28-7.05h-16.73Zm11.82,9.19h5.13c7.44,0,12.24,3.34,12.24,12s-4.81,12.01-12.24,12.01h-5.13v-24.01Zm-48.21-9.19l-9.95,33.45-9.53-33.45h-12.87l13.61,42.21h17.18l13.72-42.21h-12.17Zm82.8,42.21h11.92v-42.21h-11.93v42.21Zm33.42-42.19l-16.65,42.18h11.75l2.63-7.45h19.7l2.49,7.45h12.76l-16.77-42.18h-15.92Zm7.74,7.7l7.22,19.76h-14.67l7.45-19.76Z"/></g><path d="M146.79,279.93c-19.53,0-34.34-5.28-44.41-15.84-10.07-10.56-15.11-26.04-15.11-46.43v-7.69c0-13.19,2.29-24.48,6.87-33.88,4.58-9.4,11.14-16.6,19.69-21.61,8.54-5,18.68-7.51,30.4-7.51h2.02c11.96,0,22.1,2.57,30.4,7.69s14.23,12.58,17.77,22.34l-19.23,6.78c-4.03-12.33-13.73-18.49-29.12-18.49h-1.65c-11.48,0-20.36,3.84-26.65,11.54-6.29,7.69-9.43,18.62-9.43,32.78v8.61c0,28.94,12.75,43.4,38.27,43.4h1.65c5.49,0,10.65-.52,15.47-1.56,4.83-1.04,9.01-2.53,12.55-4.49v-29.48h-29.85l2.38-17.58h47.61v57.14c-5.74,4.52-12.7,8.03-20.88,10.53-8.18,2.5-17.16,3.75-26.92,3.75h-1.84Zm99.45-2.38v-110.07h-39.75v-18.13h100.55v18.13h-39.75v110.07h-21.06Zm122.88,2.38c-18.44,0-32.5-5.49-42.21-16.48-9.7-10.99-14.56-26.43-14.56-46.33v-7.69c0-12.82,2.26-23.9,6.78-33.24,4.52-9.34,11.02-16.54,19.5-21.61,8.49-5.06,18.65-7.6,30.49-7.6h1.84c12.33,0,22.65,2.78,30.95,8.33,8.3,5.56,14.16,13.4,17.58,23.53l-19.41,6.78c-2.08-6.84-5.65-11.93-10.71-15.29-5.07-3.36-11.21-5.03-18.41-5.03h-1.65c-11.24,0-20.03,3.72-26.38,11.17-6.35,7.45-9.52,18.31-9.52,32.6v8.61c0,14.65,3.08,25.64,9.25,32.97,6.17,7.32,15.05,10.99,26.65,10.99h1.65c7.44,0,13.79-1.65,19.05-4.95,5.25-3.3,8.91-8.24,10.99-14.83l19.05,7.32c-3.54,9.77-9.56,17.34-18.04,22.71-8.49,5.37-18.83,8.06-31.04,8.06h-1.84Z"/></svg>